HIERARCHY
ROOT Hips
{
	OFFSET 0.000000 0.000000 0.000000
	CHANNELS 6 Xposition Yposition Zposition Zrotation Yrotation Xrotation 
	JOINT LHipJoint
	{
		OFFSET 0.000000 0.000000 0.000000
		CHANNELS 3 Zrotation Yrotation Xrotation
		JOINT LeftUpLeg
		{
			OFFSET 1.363060 -1.794630 0.839290
			CHANNELS 3 Zrotation Yrotation Xrotation
			JOINT LeftLeg
			{
				OFFSET 2.448110 -6.726130 0.000000
				CHANNELS 3 Zrotation Yrotation Xrotation
				JOINT LeftFoot
				{
					OFFSET 2.562200 -7.039590 0.000000
					CHANNELS 3 Zrotation Yrotation Xrotation
					JOINT LeftToeBase
					{
						OFFSET 0.157640 -0.433110 2.322550
						CHANNELS 3 Zrotation Yrotation Xrotation
						End Site
						{
							OFFSET 0.000000 0.000000 0.000000
						}
					}
				}
			}
		}
	}
	JOINT RHipJoint
	{
		OFFSET 0.000000 0.000000 0.000000
		CHANNELS 3 Zrotation Yrotation Xrotation
		JOINT RightUpLeg
		{
			OFFSET -1.305520 -1.794630 0.839290
			CHANNELS 3 Zrotation Yrotation Xrotation
			JOINT RightLeg
			{
				OFFSET -2.542530 -6.985550 0.000000
				CHANNELS 3 Zrotation Yrotation Xrotation
				JOINT RightFoot
				{
					OFFSET -2.568260 -7.056230 0.000000
					CHANNELS 3 Zrotation Yrotation Xrotation
					JOINT RightToeBase
					{
						OFFSET -0.164730 -0.452590 2.363150
						CHANNELS 3 Zrotation Yrotation Xrotation
						End Site
						{
							OFFSET 0.000000 0.000000 0.000000
						}
					}
				}
			}
		}
	}
	JOINT LowerBack
	{
		OFFSET 0.000000 0.000000 0.000000
		CHANNELS 3 Zrotation Yrotation Xrotation
		JOINT Spine
		{
			OFFSET 0.028270 2.035590 -0.193380
			CHANNELS 3 Zrotation Yrotation Xrotation
			JOINT Spine1
			{
				OFFSET 0.056720 2.048850 -0.042750
				CHANNELS 3 Zrotation Yrotation Xrotation
				JOINT Neck
				{
					OFFSET 0.000000 0.000000 0.000000
					CHANNELS 3 Zrotation Yrotation Xrotation
					JOINT Neck1
					{
						OFFSET -0.054170 1.746240 0.172020
						CHANNELS 3 Zrotation Yrotation Xrotation
						JOINT Head
						{
							OFFSET 0.104070 1.761360 -0.123970
							CHANNELS 3 Zrotation Yrotation Xrotation
							End Site
							{
								OFFSET 0.000000 0.000000 0.000000
							}
						}
					}
				}
				JOINT LeftShoulder
				{
					OFFSET 0.000000 0.000000 0.000000
					CHANNELS 3 Zrotation Yrotation Xrotation
					JOINT LeftArm
					{
						OFFSET 3.362410 1.200890 -0.311210
						CHANNELS 3 Zrotation Yrotation Xrotation
						JOINT LeftForeArm
						{
							OFFSET 4.983000 -0.000000 -0.000000
							CHANNELS 3 Zrotation Yrotation Xrotation
							JOINT LeftHand
							{
								OFFSET 3.483560 -0.000000 -0.000000
								CHANNELS 3 Zrotation Yrotation Xrotation
								JOINT LeftFingerBase
								{
									OFFSET 0.000000 0.000000 0.000000
									CHANNELS 3 Zrotation Yrotation Xrotation
									JOINT LeftHandIndex1
									{
										OFFSET 0.715260 -0.000000 -0.000000
										CHANNELS 3 Zrotation Yrotation Xrotation
										End Site
										{
											OFFSET 0.000000 0.000000 0.000000
										}
									}
								}
								JOINT LThumb
								{
									OFFSET 0.000000 0.000000 0.000000
									CHANNELS 3 Zrotation Yrotation Xrotation
									End Site
									{
										OFFSET 0.000000 0.000000 0.000000
									}
								}
							}
						}
					}
				}
				JOINT RightShoulder
				{
					OFFSET 0.000000 0.000000 0.000000
					CHANNELS 3 Zrotation Yrotation Xrotation
					JOINT RightArm
					{
						OFFSET -3.136600 1.374050 -0.404650
						CHANNELS 3 Zrotation Yrotation Xrotation
						JOINT RightForeArm
						{
							OFFSET -5.241900 -0.000000 -0.000000
							CHANNELS 3 Zrotation Yrotation Xrotation
							JOINT RightHand
							{
								OFFSET -3.444170 -0.000000 -0.000000
								CHANNELS 3 Zrotation Yrotation Xrotation
								JOINT RightFingerBase
								{
									OFFSET 0.000000 0.000000 0.000000
									CHANNELS 3 Zrotation Yrotation Xrotation
									JOINT RightHandIndex1
									{
										OFFSET -0.622530 -0.000000 -0.000000
										CHANNELS 3 Zrotation Yrotation Xrotation
										End Site
										{
											OFFSET 0.000000 0.000000 0.000000
										}
									}
								}
								JOINT RThumb
								{
									OFFSET 0.000000 0.000000 0.000000
									CHANNELS 3 Zrotation Yrotation Xrotation
									End Site
									{
										OFFSET 0.000000 0.000000 0.000000
									}
								}
							}
						}
					}
				}
			}
		}
	}
}
MOTION
Frames: 7
Frame Time: 0.008333
-11.257329 16.675303 -0.560231 96.103417 88.058831 105.827070 -12.018273 5.000453 0.754674 -5.654757 8.894935 3.151208 -0.852167 1.645691 27.873994 0.124638 -3.383283 8.534647 -0.826000 0.000000 -86.145500 8.057109 -1.054128 3.369136 9.573433 3.184672 -39.844404 1.713576 -1.795813 31.058123 -1.376702 -4.992958 -5.621311 -0.695401 0.000000 -14.355600 6.024843 -7.131741 -5.208921 1.332330 -7.664404 -3.869886 -4.698810 -7.803630 0.569428 11.042722 -19.964001 -10.336303 -2.294199 -0.140620 -0.637216 0.000000 0.000000 0.000000 4.042892 -2.352286 -0.048346 -42.553350 -19.903080 -5.443666 -0.811257 -77.955764 -0.079411 9.002714 -2.947266 -0.276610 -0.078324 0.559224 -0.000000 0.000000 0.000000 0.000000 0.000000 0.000000 0.000000 12.944580 -20.105070 2.304085 51.096801 -18.104703 -29.278408 2.782079 38.207122 0.000043 -5.313883 2.108756 -0.103639 0.154125 -0.070724 0.000000 0.000000 0.000000 0.000000 0.000000 0.000000 0.000000 
-11.095359 16.645709 -0.546158 116.147790 88.866090 125.691647 -11.846888 4.966512 0.634776 -4.498727 9.512629 2.158009 -0.632606 1.781500 30.568693 0.185465 -3.844100 9.951495 -1.075900 -0.000000 -87.374400 8.306586 -1.118904 3.277107 10.429210 2.990825 -39.863538 1.731324 -2.003554 32.812874 -1.405424 -4.919258 -6.622544 -0.545900 -0.000000 -13.423400 6.963933 -7.107870 -5.031875 1.494111 -7.715153 -3.867126 -4.847613 -7.846935 0.480189 11.220696 -19.717531 -10.391368 -2.431142 -0.151664 -0.654282 0.000000 0.000000 0.000000 3.972407 -2.474449 0.006983 -44.094353 -18.668130 -5.403088 -0.861775 -77.688852 -0.079398 9.229436 -2.956035 -0.283466 -0.083503 0.547790 -0.000000 0.000000 0.000000 0.000000 0.000000 0.000000 0.000000 13.567759 -19.890259 2.284839 51.288554 -17.057552 -29.409172 2.799509 37.554827 -0.000138 -5.428822 2.117693 -0.106156 0.150881 -0.069788 0.000000 0.000000 0.000000 0.000000 0.000000 0.000000 0.000000 
-10.938433 16.613675 -0.532380 11.750011 87.991029 21.229101 -12.171754 5.891353 0.548084 -3.685479 10.739570 0.795988 -0.868607 2.326891 33.047835 0.343633 -4.097679 11.412442 -1.352100 0.000000 -87.679200 8.411463 -0.194347 2.892196 11.324430 3.385123 -39.485993 1.528180 -1.767241 34.773714 -1.340394 -4.556085 -7.666315 -0.375400 -0.000000 -12.480200 7.527728 -6.392200 -4.641122 1.478681 -7.016819 -3.829815 -5.037663 -7.128422 0.395087 11.475060 -19.402820 -10.460465 -2.561802 -0.161097 -0.679614 0.000000 0.000000 0.000000 3.934377 -2.175165 -0.024024 -45.636804 -17.320423 -5.453185 -0.906374 -77.363369 -0.079438 9.504519 -2.957083 -0.290800 -0.084625 0.531058 -0.000000 0.000000 0.000000 0.000000 0.000000 0.000000 0.000000 14.217442 -19.243331 2.339190 51.534782 -15.818892 -29.534079 2.840601 36.849703 -0.000426 -5.526401 2.104113 -0.107360 0.148497 -0.070165 -0.000000 0.000000 0.000000 0.000000 0.000000 0.000000 0.000000 
-10.786664 16.579211 -0.518690 50.100230 88.521694 59.255273 -13.263704 5.416279 0.461920 -2.776849 11.320010 -0.241909 -0.425117 2.270168 36.046304 0.438694 -4.417023 12.996138 -1.620600 -0.000001 -86.920500 7.437798 -0.880035 2.736684 11.751880 2.900282 -39.379899 1.617400 -1.984485 36.412099 -1.391818 -4.402601 -9.080786 -0.192200 0.000000 -11.568500 6.934099 -6.708031 -4.398208 1.369793 -7.289540 -3.797743 -5.128685 -7.419282 0.299663 11.756562 -19.037028 -10.488884 -2.708998 -0.172708 -0.692552 0.000000 0.000000 0.000000 3.949438 -2.474949 0.064791 -47.161634 -16.166327 -5.456392 -0.937492 -76.803171 -0.079746 9.813086 -2.947924 -0.298644 -0.092563 0.519270 -0.000000 0.000000 0.000000 0.000000 0.000000 0.000000 0.000000 14.999095 -19.055753 2.302670 51.838127 -14.726850 -29.699487 2.834522 36.155421 -0.000687 -5.635831 2.068141 -0.107382 0.142361 -0.067827 -0.000000 0.000000 0.000000 0.000000 0.000000 0.000000 0.000000 
-10.639872 16.542615 -0.504904 59.174720 89.227729 68.048177 -13.534028 5.164649 0.290291 -1.547639 11.965007 -1.366845 -0.143076 2.342145 39.105167 0.562037 -4.504158 14.447664 -1.835701 0.000000 -85.022100 7.234701 -1.147854 2.589199 12.598558 2.641692 -39.066174 1.693434 -2.154247 37.854396 -1.442451 -4.285690 -10.520443 -0.004200 -0.000000 -10.730599 7.373943 -6.791220 -4.062875 1.428396 -7.403057 -3.763356 -5.295582 -7.533709 0.178128 12.076754 -18.620563 -10.516477 -2.862349 -0.184947 -0.706058 0.000000 0.000000 0.000000 3.961613 -2.689640 0.145462 -48.725513 -15.037041 -5.518968 -0.977801 -76.101387 -0.080308 10.158699 -2.943986 -0.307855 -0.097544 0.506250 -0.000000 0.000000 0.000000 0.000000 0.000000 0.000000 0.000000 15.812345 -18.726796 2.287808 52.148317 -13.575325 -29.845936 2.835192 35.423870 -0.001096 -5.775124 2.008418 -0.106706 0.136961 -0.066440 0.000000 0.000000 0.000000 0.000000 0.000000 0.000000 0.000000 
-10.497665 16.504365 -0.491152 62.487331 89.884195 71.078419 -13.783098 4.963600 0.104174 -0.302785 12.608341 -2.553536 0.082583 2.455256 42.205252 0.705452 -4.301076 15.718598 -1.947500 0.000001 -81.993700 7.057961 -1.324329 2.414822 13.521786 2.438163 -38.615275 1.761120 -2.275737 39.150652 -1.498361 -4.193444 -11.962659 0.182000 0.000000 -9.993400 7.858235 -6.807657 -3.682094 1.480755 -7.448249 -3.722720 -5.482666 -7.577407 0.049368 12.432219 -18.149816 -10.531358 -3.019459 -0.197482 -0.717230 0.000000 0.000000 0.000000 3.966204 -2.872908 0.229339 -50.271804 -13.967319 -5.613887 -1.017292 -75.227375 -0.080871 10.532127 -2.956310 -0.319101 -0.101399 0.492268 -0.000000 0.000000 0.000000 0.000000 0.000000 0.000000 0.000000 16.667143 -18.316439 2.279549 52.488779 -12.386412 -29.967460 2.832228 34.669671 -0.001611 -5.963484 1.933475 -0.106030 0.131292 -0.065269 0.000000 0.000000 0.000000 0.000000 0.000000 0.000000 0.000000 
-10.359836 16.465207 -0.476400 -116.303723 89.486057 -108.001790 -14.019281 4.762441 -0.087074 0.891322 13.181894 -3.769736 0.277876 2.589750 45.327047 0.858711 -3.744926 16.716996 -1.901800 -0.000000 -77.936799 6.884203 -1.469840 2.224320 14.453501 2.220994 -38.069813 1.825209 -2.372109 40.302829 -1.561340 -4.133386 -13.366535 0.363900 -0.000000 -9.395100 8.304842 -6.802523 -3.274209 1.515954 -7.466000 -3.677115 -5.686407 -7.592539 -0.085011 12.823464 -17.621668 -10.525642 -3.182637 -0.210590 -0.723577 0.000000 0.000000 0.000000 3.963307 -3.055340 0.322598 -51.781867 -12.963029 -5.729681 -1.054306 -74.162224 -0.081282 10.925921 -2.993792 -0.333472 -0.104373 0.477329 -0.000000 0.000000 0.000000 0.000000 0.000000 0.000000 0.000000 17.579249 -17.843897 2.270735 52.854373 -11.188549 -30.038198 2.822838 33.907189 -0.002219 -6.219615 1.848315 -0.105655 0.125252 -0.064117 0.000000 0.000000 0.000000 0.000000 0.000000 0.000000 0.000000 
